# xmcd
#
# Track frame offsets:
#	150
#	9682
#	20047
#	32167
#	42912
#	55275
#	66770
#	78227
#	90902
#	107700
#	120412
#	137887
#	148655
#	169687
#	191927
#	207515
#	221765
#	233242
#	246807
#	259077
#	267952
#	283222
#
# Disc length: 3946
#
# Revision: 3
# Processed by: cddbd v1.5.1PL0 Copyright (c) Steve Scherf et al.
# Submitted via: EasyCDDAExtractor 5.0.7
# Normalized: r2:DSETVAR1
#
DISCID=4b0f6816
DTITLE=Various Artist - Bluegrass Class of 1990 - Rounder Sampler
DYEAR=1900
DGENRE=Bluegrass
TTITLE0=Ricky Skaggs - Lost and I'll Never Find My Way
TTITLE1=Jim and Jesse - I'll Love Nobody But You
TTITLE2=The Johnson Mountain Boys - Let the Whole World Talk
TTITLE3=Alison Krauss and Union Station - Love You In Vain
TTITLE4=Tony Rice - Bitter Green
TTITLE5=David Grisman - Feast Here Tonight
TTITLE6=The Nashville Bluegrass Band - Old Devil's Dream
TTITLE7=Lynn Morris - What Was I Supposed to Do
TTITLE8=Sam Bush - Leather Britches
TTITLE9=J.D. Crowe - Old Home Place
TTITLE10=The Dry Branch Fire Squad - Devil, Take the Farmer
TTITLE11=The Whitstein Brothers - Mansion on the Hill
TTITLE12=Norman Blake and Tony Rice - Fiddler's Dram/Whiskey Before Breakfast
TTITLE13=The Rice Brothers - The Old house
TTITLE14=Alison Krauss - Foolish Heart
TTITLE15=Bela Fleck - Whitewater
TTITLE16=The Bluegrass Album Band - Preaching, Praying, Singing
TTITLE17=The Johnson Mountain Boys - Don't Worry
TTITLE18=Tony Furtado - John Henry
TTITLE19=David Grisman - I Ain't Broke But I'm Badly Bent
TTITLE20=Tony Rice - Greenlight on the Southern
TTITLE21=The Nashville Bluegrass Band - No Hiding Place
EXTD=
EXTT0=
EXTT1=
EXTT2=
EXTT3=
EXTT4=
EXTT5=
EXTT6=
EXTT7=
EXTT8=
EXTT9=
EXTT10=
EXTT11=
EXTT12=
EXTT13=
EXTT14=
EXTT15=
EXTT16=
EXTT17=
EXTT18=
EXTT19=
EXTT20=
EXTT21=
PLAYORDER=
